<mxfile host="app.diagrams.net" modified="2023-05-23T06:42:26.358Z" agent="Mozilla/5.0 (Windows NT 10.0; Win64; x64) AppleWebKit/537.36 (KHTML, like Gecko) Chrome/113.0.0.0 Safari/537.36" etag="uyWuCGXMSSKAsLXeTf21" version="21.3.2" type="github">
  <diagram name="Pagina-1" id="ocy3MZR8OTy5_CmRoU82">
    <mxGraphModel dx="1434" dy="796" grid="1" gridSize="10" guides="1" tooltips="1" connect="1" arrows="1" fold="1" page="1" pageScale="1" pageWidth="827" pageHeight="1169" math="0" shadow="0">
      <root>
        <mxCell id="0" />
        <mxCell id="1" parent="0" />
        <mxCell id="tL-yOZdyx55PUgeNAYdP-1" value="Biomarker" style="rounded=0;whiteSpace=wrap;html=1;" parent="1" vertex="1">
          <mxGeometry x="260" y="360" width="90" height="30" as="geometry" />
        </mxCell>
        <mxCell id="tL-yOZdyx55PUgeNAYdP-2" value="Exposure Biomarker" style="rounded=0;whiteSpace=wrap;html=1;" parent="1" vertex="1">
          <mxGeometry x="140" y="250" width="90" height="30" as="geometry" />
        </mxCell>
        <mxCell id="tL-yOZdyx55PUgeNAYdP-4" value="Effect Biomarker" style="rounded=0;whiteSpace=wrap;html=1;" parent="1" vertex="1">
          <mxGeometry x="300" y="250" width="90" height="30" as="geometry" />
        </mxCell>
        <mxCell id="tL-yOZdyx55PUgeNAYdP-5" value="Effect Biomarker" style="rounded=0;whiteSpace=wrap;html=1;" parent="1" vertex="1">
          <mxGeometry x="460" y="250" width="90" height="30" as="geometry" />
        </mxCell>
      </root>
    </mxGraphModel>
  </diagram>
</mxfile>
